<svg width="244" height="592" fill="none" xmlns="http://www.w3.org/2000/svg"><g filter="url(#filter0_d)"><path d="M74.574 488.327c-7.895 0-15.52-3.374-20.784-9.313l-.203-.202-.27.202c-4.048 2.969-8.772 4.589-13.833 4.589-12.754 0-23.146-10.392-23.146-23.146a23.248 23.248 0 0115.858-22.066l.27-.068v-.27-1.147c0-16.87 13.698-30.569 30.569-30.569 9.65 0 18.557 4.387 24.36 12.147l.203.27.27-.203c4.183-3.441 9.514-5.331 14.98-5.331 11.877 0 21.999 8.84 23.551 20.65v.202l.202.067c9.178 3.577 15.116 12.282 15.116 22.134 0 13.091-10.662 23.753-23.753 23.753-6.681 0-13.091-2.834-17.545-7.76l-.337-.405-.203.473c-4.589 9.649-14.576 15.993-25.305 15.993z" fill="url(#paint0_linear)"/><path d="M62.967 406.675c9.514 0 18.354 4.386 24.09 12.011l.405.54.54-.472c4.184-3.374 9.38-5.264 14.778-5.264 11.742 0 21.662 8.773 23.214 20.312l.067.405.405.135c9.042 3.509 14.913 12.079 14.913 21.796 0 12.889-10.459 23.416-23.416 23.416-6.545 0-12.888-2.767-17.275-7.625l-.674-.743-.405.945c-4.521 9.65-14.306 15.858-24.968 15.858-7.828 0-15.318-3.374-20.582-9.177l-.405-.473-.472.338c-3.982 2.969-8.638 4.521-13.631 4.521-12.62 0-22.876-10.257-22.876-22.809a22.772 22.772 0 0115.655-21.661l.473-.135v-.54-1.147c-.068-16.668 13.496-30.231 30.164-30.231zm0-.675c-17.073 0-30.907 13.834-30.907 30.906v1.215C22.748 441.225 16 449.997 16 460.389c0 12.957 10.527 23.484 23.483 23.484 5.264 0 10.122-1.755 14.036-4.656 5.196 5.803 12.687 9.379 21.054 9.379 11.337 0 21.054-6.68 25.576-16.262a23.895 23.895 0 0017.814 7.895c13.294 0 24.091-10.797 24.091-24.091 0-10.189-6.343-18.894-15.318-22.403-1.552-11.81-11.607-20.919-23.821-20.919a23.948 23.948 0 00-15.183 5.398C81.996 410.791 73.022 406 62.967 406z" fill="#fff"/></g><g filter="url(#filter1_d)"><path d="M173.141 567.666c-5.399 0-10.527-2.294-14.171-6.343l-.203-.202-.27.202a15.642 15.642 0 01-9.379 3.104c-8.638 0-15.723-7.085-15.723-15.723 0-6.815 4.318-12.753 10.796-14.913l.27-.067v-.27-.81c0-11.472 9.313-20.784 20.784-20.784 6.546 0 12.619 3.036 16.601 8.233l.202.269.27-.202c2.834-2.362 6.478-3.644 10.19-3.644 8.097 0 14.913 6.006 15.993 14.036v.202l.202.068c6.208 2.429 10.257 8.3 10.257 15.048 0 8.908-7.22 16.128-16.128 16.128-4.521 0-8.84-1.889-11.944-5.263l-.337-.405-.203.472c-3.104 6.546-9.852 10.864-17.207 10.864z" fill="url(#paint1_linear)"/><path d="M165.246 512.13c6.478 0 12.416 2.969 16.33 8.098l.405.539.54-.472c2.834-2.294 6.343-3.576 9.987-3.576 7.895 0 14.643 5.87 15.656 13.698l.067.405.405.135a15.734 15.734 0 0110.055 14.711c0 8.705-7.086 15.79-15.791 15.79a15.879 15.879 0 01-11.674-5.128l-.675-.743-.405.945c-3.036 6.546-9.717 10.73-16.87 10.73-5.263 0-10.324-2.295-13.901-6.209l-.405-.472-.472.337c-2.699 1.957-5.871 3.037-9.178 3.037-8.502 0-15.385-6.883-15.385-15.386 0-6.613 4.251-12.483 10.527-14.575l.472-.135v-.54-.81c-.135-11.202 9.043-20.379 20.312-20.379zm0-.675c-11.674 0-21.122 9.447-21.122 21.122v.809c-6.41 2.092-10.999 8.166-10.999 15.251 0 8.84 7.22 16.06 16.06 16.06 3.577 0 6.883-1.214 9.583-3.171 3.509 3.981 8.705 6.41 14.373 6.41 7.76 0 14.373-4.521 17.478-11.134 3.036 3.307 7.355 5.399 12.146 5.399 9.11 0 16.465-7.356 16.465-16.466 0-6.95-4.318-12.956-10.459-15.318-1.08-8.098-7.963-14.306-16.33-14.306-3.914 0-7.558 1.417-10.392 3.712-3.847-5.061-9.92-8.368-16.803-8.368z" fill="url(#paint2_linear)"/></g><g filter="url(#filter2_d)"><path d="M96.016 79.211c-5.399 0-10.527-2.294-14.171-6.343l-.203-.202-.27.202a15.649 15.649 0 01-9.38 3.104c-8.637 0-15.723-7.085-15.723-15.723 0-6.815 4.32-12.754 10.798-14.913l.27-.067v-.27-.81c0-11.472 9.312-20.784 20.784-20.784 6.545 0 12.618 3.036 16.6 8.232l.202.27.27-.202c2.834-2.362 6.478-3.644 10.19-3.644 8.097 0 14.913 6.006 15.993 14.036v.202l.202.068c6.208 2.43 10.257 8.3 10.257 15.048 0 8.908-7.22 16.128-16.128 16.128-4.521 0-8.84-1.89-11.944-5.264l-.337-.404-.203.472c-3.104 6.546-9.852 10.864-17.207 10.864z" fill="url(#paint3_linear)"/><path d="M88.12 23.675c6.479 0 12.417 2.969 16.331 8.098l.405.54.54-.473c2.834-2.294 6.343-3.576 9.987-3.576 7.895 0 14.643 5.87 15.656 13.698l.067.405.405.135a15.734 15.734 0 0110.055 14.71c0 8.706-7.086 15.791-15.791 15.791a15.88 15.88 0 01-11.674-5.128l-.675-.743-.405.945c-3.036 6.546-9.717 10.73-16.87 10.73-5.263 0-10.325-2.295-13.901-6.209l-.405-.472-.472.337c-2.7 1.957-5.871 3.037-9.178 3.037-8.502 0-15.385-6.883-15.385-15.386 0-6.613 4.251-12.483 10.527-14.575l.472-.135v-.54-.81c-.135-11.202 9.043-20.38 20.312-20.38zm0-.675C76.448 23 67 32.447 67 44.121v.81c-6.411 2.092-11 8.165-11 15.25 0 8.84 7.22 16.061 16.06 16.061 3.577 0 6.883-1.214 9.583-3.171 3.509 3.981 8.705 6.41 14.373 6.41 7.76 0 14.373-4.52 17.478-11.134 3.036 3.307 7.355 5.399 12.146 5.399 9.11 0 16.465-7.356 16.465-16.466 0-6.95-4.318-12.956-10.459-15.318-1.08-8.098-7.963-14.306-16.33-14.306-3.914 0-7.558 1.417-10.392 3.712C101.077 26.307 95.004 23 88.121 23z" fill="url(#paint4_linear)"/></g><g filter="url(#filter3_d)"><path d="M41.773 55.017c-4.45 0-8.68-1.892-11.684-5.23l-.167-.168-.223.167a12.904 12.904 0 01-7.734 2.56C14.842 52.346 9 46.503 9 39.38c0-5.62 3.561-10.517 8.903-12.297l.222-.056v-.222-.668C18.125 16.678 25.805 9 35.263 9c5.398 0 10.406 2.504 13.688 6.788l.167.223.223-.167c2.337-1.947 5.342-3.005 8.402-3.005 6.677 0 12.297 4.952 13.187 11.574v.167l.167.056c5.12 2.003 8.458 6.844 8.458 12.408 0 7.345-5.954 13.299-13.299 13.299-3.728 0-7.289-1.559-9.849-4.34l-.278-.334-.167.389c-2.56 5.397-8.123 8.959-14.189 8.959z" fill="url(#paint5_linear)"/><path d="M35.486 9.556c5.342 0 10.238 2.449 13.465 6.678l.334.445.445-.39c2.337-1.892 5.23-2.949 8.236-2.949 6.51 0 12.074 4.841 12.909 11.296l.055.333.334.112a12.974 12.974 0 018.29 12.13c0 7.178-5.842 13.02-13.02 13.02a13.094 13.094 0 01-9.626-4.229l-.556-.612-.334.78c-2.504 5.397-8.013 8.846-13.91 8.846-4.34 0-8.514-1.891-11.463-5.119l-.334-.39-.39.279c-2.225 1.614-4.84 2.504-7.567 2.504-7.01 0-12.686-5.676-12.686-12.687 0-5.453 3.505-10.293 8.68-12.018l.39-.112v-.445-.668c-.112-9.236 7.456-16.804 16.748-16.804zm0-.556C25.86 9 18.07 16.79 18.07 26.416v.668C12.784 28.809 9 33.817 9 39.659c0 7.29 5.954 13.243 13.243 13.243 2.949 0 5.676-1.002 7.901-2.615 2.894 3.283 7.178 5.286 11.852 5.286 6.399 0 11.852-3.728 14.411-9.181 2.504 2.726 6.066 4.451 10.016 4.451A13.56 13.56 0 0080 37.266c0-5.73-3.561-10.683-8.625-12.63-.89-6.677-6.565-11.797-13.465-11.797-3.227 0-6.232 1.169-8.57 3.06C46.17 11.728 41.162 9 35.487 9z" fill="url(#paint6_linear)"/></g><defs><linearGradient id="paint0_linear" x1="40.112" y1="447.327" x2="165.498" y2="447.327" gradientUnits="userSpaceOnUse"><stop stop-color="#fff"/><stop offset="1" stop-color="#E1F4FD"/></linearGradient><linearGradient id="paint1_linear" x1="149.619" y1="539.759" x2="235.189" y2="539.759" gradientUnits="userSpaceOnUse"><stop stop-color="#fff"/><stop offset="1" stop-color="#E1F4FD"/></linearGradient><linearGradient id="paint2_linear" x1="149.452" y1="539.692" x2="235.562" y2="539.692" gradientUnits="userSpaceOnUse"><stop stop-color="#fff"/><stop offset="1" stop-color="#E1F4FD"/></linearGradient><linearGradient id="paint3_linear" x1="72.494" y1="51.304" x2="158.064" y2="51.304" gradientUnits="userSpaceOnUse"><stop stop-color="#fff"/><stop offset="1" stop-color="#E1F4FD"/></linearGradient><linearGradient id="paint4_linear" x1="72.327" y1="51.237" x2="158.437" y2="51.237" gradientUnits="userSpaceOnUse"><stop stop-color="#fff"/><stop offset="1" stop-color="#E1F4FD"/></linearGradient><linearGradient id="paint5_linear" x1="22.378" y1="32.005" x2="92.937" y2="32.005" gradientUnits="userSpaceOnUse"><stop stop-color="#fff"/><stop offset="1" stop-color="#E1F4FD"/></linearGradient><linearGradient id="paint6_linear" x1="22.463" y1="32.283" x2="93.466" y2="32.283" gradientUnits="userSpaceOnUse"><stop stop-color="#fff"/><stop offset="1" stop-color="#E1F4FD"/></linearGradient><filter id="filter0_d" x="7.992" y="397.992" width="158.086" height="114.629" filterUnits="userSpaceOnUse" color-interpolation-filters="sRGB"><feFlood flood-opacity="0" result="BackgroundImageFix"/><feColorMatrix in="SourceAlpha" values="0 0 0 0 0 0 0 0 0 0 0 0 0 0 0 0 0 0 127 0"/><feOffset dx="8.008" dy="8.008"/><feGaussianBlur stdDeviation="8.008"/><feColorMatrix values="0 0 0 0 0.555208 0 0 0 0 0.752283 0 0 0 0 0.8125 0 0 0 0.5 0"/><feBlend in2="BackgroundImageFix" result="effect1_dropShadow"/><feBlend in="SourceGraphic" in2="effect1_dropShadow" result="shape"/></filter><filter id="filter1_d" x="125.117" y="503.447" width="118.138" height="88.513" filterUnits="userSpaceOnUse" color-interpolation-filters="sRGB"><feFlood flood-opacity="0" result="BackgroundImageFix"/><feColorMatrix in="SourceAlpha" values="0 0 0 0 0 0 0 0 0 0 0 0 0 0 0 0 0 0 127 0"/><feOffset dx="8.008" dy="8.008"/><feGaussianBlur stdDeviation="8.008"/><feColorMatrix values="0 0 0 0 0.555208 0 0 0 0 0.752283 0 0 0 0 0.8125 0 0 0 0.5 0"/><feBlend in2="BackgroundImageFix" result="effect1_dropShadow"/><feBlend in="SourceGraphic" in2="effect1_dropShadow" result="shape"/></filter><filter id="filter2_d" x="47.992" y="14.992" width="118.138" height="88.513" filterUnits="userSpaceOnUse" color-interpolation-filters="sRGB"><feFlood flood-opacity="0" result="BackgroundImageFix"/><feColorMatrix in="SourceAlpha" values="0 0 0 0 0 0 0 0 0 0 0 0 0 0 0 0 0 0 127 0"/><feOffset dx="8.008" dy="8.008"/><feGaussianBlur stdDeviation="8.008"/><feColorMatrix values="0 0 0 0 0.555208 0 0 0 0 0.752283 0 0 0 0 0.8125 0 0 0 0.5 0"/><feBlend in2="BackgroundImageFix" result="effect1_dropShadow"/><feBlend in="SourceGraphic" in2="effect1_dropShadow" result="shape"/></filter><filter id="filter3_d" x=".992" y=".992" width="103.032" height="78.605" filterUnits="userSpaceOnUse" color-interpolation-filters="sRGB"><feFlood flood-opacity="0" result="BackgroundImageFix"/><feColorMatrix in="SourceAlpha" values="0 0 0 0 0 0 0 0 0 0 0 0 0 0 0 0 0 0 127 0"/><feOffset dx="8.008" dy="8.008"/><feGaussianBlur stdDeviation="8.008"/><feColorMatrix values="0 0 0 0 0.555208 0 0 0 0 0.752283 0 0 0 0 0.8125 0 0 0 0.5 0"/><feBlend in2="BackgroundImageFix" result="effect1_dropShadow"/><feBlend in="SourceGraphic" in2="effect1_dropShadow" result="shape"/></filter></defs></svg>