<svg width="157" height="193" fill="none" xmlns="http://www.w3.org/2000/svg"><g filter="url(#filter0_d)"><path d="M30.426 162.944v-4.505c-6.152-.317-10.937-1.855-14.355-4.614-3.394-2.734-5.103-6.421-5.127-11.059H23.65c.098 1.587.77 2.942 2.015 4.065 1.27 1.123 2.856 1.782 4.76 1.977v-11.572l-4.358-.916c-9.448-2.099-14.172-7.165-14.172-15.197 0-4.712 1.623-8.484 4.87-11.316 3.223-2.832 7.777-4.456 13.66-4.871v-4.944h5.237v4.981c5.396.512 9.68 2.185 12.854 5.017 3.198 2.832 4.822 6.408 4.87 10.73H41.084c-.049-1.416-.586-2.674-1.611-3.772-1.026-1.123-2.295-1.807-3.809-2.051v11.169l4.358.806c9.644 1.831 14.465 6.848 14.465 15.051 0 4.785-1.635 8.594-4.907 11.426-3.247 2.857-7.886 4.529-13.916 5.017v4.578h-5.237zm11.5-19.519c0-2.759-2.088-4.517-6.263-5.274v10.657c1.953-.171 3.48-.732 4.578-1.684 1.123-.953 1.684-2.186 1.684-3.699zm-17.14-23.584c0 2.661 1.88 4.382 5.64 5.163V114.86c-1.66.098-3.015.611-4.065 1.538-1.05.928-1.574 2.076-1.574 3.443z" fill="url(#paint0_linear)"/></g><g filter="url(#filter1_d)"><path d="M88.082 110.91v-7.207c-9.844-.508-17.5-2.969-22.969-7.383-5.43-4.375-8.164-10.273-8.203-17.695h20.332c.156 2.54 1.23 4.707 3.223 6.504 2.031 1.797 4.57 2.852 7.617 3.164V69.777l-6.973-1.465c-15.117-3.359-22.675-11.464-22.675-24.316 0-7.539 2.597-13.574 7.793-18.105 5.156-4.532 12.441-7.13 21.855-7.793v-7.91h8.379v7.968c8.633.82 15.488 3.496 20.566 8.028 5.118 4.53 7.715 10.253 7.793 17.168h-19.687c-.078-2.266-.938-4.278-2.578-6.036-1.641-1.797-3.672-2.89-6.094-3.28v17.87l6.973 1.29c15.429 2.929 23.144 10.956 23.144 24.081 0 7.657-2.617 13.75-7.851 18.282-5.196 4.57-12.618 7.246-22.266 8.027v7.324h-8.379zm18.398-31.23c0-4.414-3.339-7.227-10.02-8.438v17.051c3.126-.274 5.567-1.172 7.325-2.695 1.797-1.524 2.695-3.496 2.695-5.918zM79.059 41.945c0 4.258 3.007 7.012 9.023 8.262v-16.23c-2.656.156-4.824.976-6.504 2.46-1.68 1.485-2.52 3.32-2.52 5.508z" fill="url(#paint1_linear)"/></g><defs><linearGradient id="paint0_linear" x1="16.239" y1="130.998" x2="70.242" y2="130.998" gradientUnits="userSpaceOnUse"><stop stop-color="#fff"/><stop offset="1" stop-color="#E1F4FD"/></linearGradient><linearGradient id="paint1_linear" x1="65.307" y1="59.998" x2="151.312" y2="59.998" gradientUnits="userSpaceOnUse"><stop stop-color="#fff"/><stop offset="1" stop-color="#E1F4FD"/></linearGradient><filter id="filter0_d" x=".943" y="89.992" width="83.543" height="102.952" filterUnits="userSpaceOnUse" color-interpolation-filters="sRGB"><feFlood flood-opacity="0" result="BackgroundImageFix"/><feColorMatrix in="SourceAlpha" values="0 0 0 0 0 0 0 0 0 0 0 0 0 0 0 0 0 0 127 0"/><feOffset dx="10" dy="10"/><feGaussianBlur stdDeviation="10"/><feColorMatrix values="0 0 0 0 0.555208 0 0 0 0 0.752283 0 0 0 0 0.8125 0 0 0 0.5 0"/><feBlend in2="BackgroundImageFix" result="effect1_dropShadow"/><feBlend in="SourceGraphic" in2="effect1_dropShadow" result="shape"/></filter><filter id="filter1_d" x="46.91" y=".188" width="109.668" height="140.723" filterUnits="userSpaceOnUse" color-interpolation-filters="sRGB"><feFlood flood-opacity="0" result="BackgroundImageFix"/><feColorMatrix in="SourceAlpha" values="0 0 0 0 0 0 0 0 0 0 0 0 0 0 0 0 0 0 127 0"/><feOffset dx="10" dy="10"/><feGaussianBlur stdDeviation="10"/><feColorMatrix values="0 0 0 0 0.555208 0 0 0 0 0.752283 0 0 0 0 0.8125 0 0 0 0.5 0"/><feBlend in2="BackgroundImageFix" result="effect1_dropShadow"/><feBlend in="SourceGraphic" in2="effect1_dropShadow" result="shape"/></filter></defs></svg>