<svg width="156" height="30" fill="none" xmlns="http://www.w3.org/2000/svg"><path d="M62.038 23V10.174h-4.533V7.499h12.321v2.675h-4.544V23h-3.244zm12.644.204c-1.798 0-3.22-.544-4.265-1.633-1.046-1.088-1.568-2.585-1.568-4.49 0-1.883.526-3.377 1.579-4.48 1.053-1.088 2.47-1.632 4.254-1.632 1.79 0 3.208.544 4.254 1.633 1.052 1.095 1.579 2.588 1.579 4.48 0 1.911-.523 3.412-1.569 4.5-1.038 1.081-2.46 1.622-4.264 1.622zm0-2.417c.83 0 1.478-.322 1.944-.967.465-.651.698-1.564.698-2.739 0-1.16-.236-2.07-.709-2.729-.465-.651-1.11-.977-1.933-.977-.831 0-1.48.326-1.945.977-.472.66-.709 1.569-.709 2.73 0 1.174.237 2.087.71 2.738.465.645 1.113.967 1.944.967zm12.912 2.417c-1.798 0-3.22-.544-4.265-1.633-1.045-1.088-1.568-2.585-1.568-4.49 0-1.883.526-3.377 1.579-4.48 1.053-1.088 2.47-1.632 4.254-1.632 1.79 0 3.208.544 4.254 1.633 1.052 1.095 1.579 2.588 1.579 4.48 0 1.911-.523 3.412-1.569 4.5-1.038 1.081-2.46 1.622-4.264 1.622zm0-2.417c.83 0 1.479-.322 1.944-.967.466-.651.698-1.564.698-2.739 0-1.16-.236-2.07-.709-2.729-.465-.651-1.11-.977-1.933-.977-.831 0-1.48.326-1.945.977-.472.66-.709 1.569-.709 2.73 0 1.174.237 2.087.71 2.738.465.645 1.113.967 1.944.967zm14.878-9.614h3.566l-4.555 5.08 4.77 6.747h-3.609l-3.46-4.855-.848.913V23h-3.137V6.758h3.137v9.195h.043l4.093-4.78zM110.808 23V10.174h-4.534V7.499h12.322v2.675h-4.544V23h-3.244zm12.643.204c-1.797 0-3.219-.544-4.264-1.633-1.046-1.088-1.569-2.585-1.569-4.49 0-1.883.527-3.377 1.579-4.48 1.053-1.088 2.471-1.632 4.254-1.632 1.791 0 3.209.544 4.254 1.633 1.053 1.095 1.579 2.588 1.579 4.48 0 1.911-.523 3.412-1.568 4.5-1.039 1.081-2.46 1.622-4.265 1.622zm0-2.417c.831 0 1.479-.322 1.945-.967.465-.651.698-1.564.698-2.739 0-1.16-.237-2.07-.709-2.729-.466-.651-1.11-.977-1.934-.977-.831 0-1.479.326-1.944.977-.473.66-.709 1.569-.709 2.73 0 1.174.236 2.087.709 2.738.465.645 1.113.967 1.944.967zm12.912 2.417c-1.797 0-3.219-.544-4.264-1.633-1.046-1.088-1.569-2.585-1.569-4.49 0-1.883.527-3.377 1.579-4.48 1.053-1.088 2.471-1.632 4.254-1.632 1.791 0 3.209.544 4.254 1.633 1.053 1.095 1.579 2.588 1.579 4.48 0 1.911-.522 3.412-1.568 4.5-1.038 1.081-2.46 1.622-4.265 1.622zm0-2.417c.831 0 1.479-.322 1.945-.967.465-.651.698-1.564.698-2.739 0-1.16-.236-2.07-.709-2.729-.466-.651-1.11-.977-1.934-.977-.83 0-1.479.326-1.944.977-.473.66-.709 1.569-.709 2.73 0 1.174.236 2.087.709 2.738.465.645 1.114.967 1.944.967zm14.878-9.614h3.567l-4.555 5.08L155.022 23h-3.609l-3.459-4.855-.849.913V23h-3.136V6.758h3.136v9.195h.043l4.093-4.78z" fill="#fff"/><circle r="12.5" transform="matrix(-1 0 0 1 12.5 15.5)" fill="#fff"/><circle transform="matrix(-1 0 0 1 32.5 15.5)" fill="#000" r="12.5"/><path d="M20 15.5C20 22.404 25.596 28 32.5 28S45 22.404 45 15.5 39.404 3 32.5 3 20 8.596 20 15.5zm22.502 0c0 5.524-4.478 10.002-10.002 10.002-5.524 0-10.002-4.478-10.002-10.002 0-5.524 4.478-10.002 10.002-10.002 5.524 0 10.002 4.478 10.002 10.002z" fill="#fff"/><path d="M18.018 10.482c-.536-.535-1.875 0-2.678.804L14 12.626l-5.566-1.332c-.084-.025-.184.009-.251.067L7.11 12.433a.288.288 0 00-.075.226.294.294 0 00.142.2l4.253 2.336-2.168 2.168-1.624-.444c-.017-.008-.042-.008-.067-.008a.28.28 0 00-.193.075l-.803.812a.283.283 0 00-.076.21c.009.075.042.15.11.192l2.109 1.582 1.582 2.11c.05.066.117.1.2.108h.017a.28.28 0 00.193-.075l.803-.804a.274.274 0 00.067-.26l-.443-1.623 2.168-2.168 2.335 4.252a.24.24 0 00.176.134.258.258 0 00.218-.042l1.07-.803a.275.275 0 00.101-.277l-1.34-5.825 1.349-1.348c.803-.804 1.339-2.143.803-2.679z" fill="#000"/><path d="M31.865 22a.4.4 0 01-.27-.105.365.365 0 01-.105-.27v-1.05c-.75-.09-1.39-.275-1.92-.555-.52-.29-.915-.645-1.185-1.065-.26-.42-.4-.865-.42-1.335 0-.09.03-.165.09-.225.07-.06.15-.09.24-.09h1.995c.13 0 .23.02.3.06.07.04.15.11.24.21.31.55.88.825 1.71.825.54 0 .955-.08 1.245-.24.3-.17.45-.4.45-.69 0-.21-.08-.38-.24-.51-.15-.14-.39-.26-.72-.36-.32-.11-.795-.23-1.425-.36-1.21-.24-2.115-.605-2.715-1.095-.6-.49-.9-1.19-.9-2.1 0-.81.29-1.495.87-2.055.58-.57 1.375-.925 2.385-1.065v-1.05c0-.11.035-.2.105-.27a.4.4 0 01.27-.105h1.305c.11 0 .2.035.27.105.07.07.105.16.105.27v1.08c.66.12 1.23.335 1.71.645.48.3.845.65 1.095 1.05.26.39.4.77.42 1.14 0 .09-.03.17-.09.24a.305.305 0 01-.225.09h-2.1c-.23 0-.4-.09-.51-.27-.06-.21-.22-.385-.48-.525-.25-.15-.555-.225-.915-.225-.42 0-.745.075-.975.225-.23.15-.345.37-.345.66 0 .29.15.52.45.69.3.16.855.325 1.665.495.94.17 1.69.385 2.25.645.56.25.97.58 1.23.99.26.4.39.91.39 1.53 0 .88-.325 1.605-.975 2.175-.64.57-1.505.925-2.595 1.065v1.05c0 .11-.035.2-.105.27a.365.365 0 01-.27.105h-1.305z" fill="#fff"/></svg>