<svg width="280" height="1500" fill="none" xmlns="http://www.w3.org/2000/svg"><g filter="url(#filter0_d)"><path d="M110.574 488.327c-7.895 0-15.52-3.374-20.784-9.313l-.203-.202-.27.202c-4.048 2.969-8.772 4.589-13.833 4.589-12.754 0-23.146-10.392-23.146-23.146a23.248 23.248 0 0115.858-22.066l.27-.068v-.27-1.147c0-16.87 13.698-30.569 30.569-30.569 9.649 0 18.557 4.387 24.36 12.147l.203.27.27-.203c4.183-3.441 9.514-5.331 14.98-5.331 11.877 0 21.999 8.84 23.551 20.65v.202l.202.067c9.178 3.577 15.116 12.282 15.116 22.134 0 13.091-10.662 23.753-23.753 23.753-6.681 0-13.091-2.834-17.545-7.76l-.337-.405-.203.473c-4.589 9.649-14.576 15.993-25.305 15.993z" fill="url(#paint0_linear)"/><path d="M98.967 406.675c9.514 0 18.354 4.386 24.09 12.011l.405.54.54-.472c4.184-3.374 9.38-5.264 14.778-5.264 11.742 0 21.662 8.773 23.214 20.312l.067.405.405.135c9.042 3.509 14.913 12.079 14.913 21.796 0 12.889-10.459 23.416-23.416 23.416-6.545 0-12.888-2.767-17.275-7.625l-.674-.743-.405.945c-4.522 9.65-14.306 15.858-24.968 15.858-7.828 0-15.318-3.374-20.582-9.177l-.405-.473-.472.338c-3.981 2.969-8.638 4.521-13.631 4.521-12.62 0-22.876-10.257-22.876-22.809a22.772 22.772 0 0115.655-21.661l.473-.135v-.54-1.147c-.068-16.668 13.496-30.231 30.164-30.231zm0-.675c-17.073 0-30.907 13.834-30.907 30.906v1.215C58.748 441.225 52 449.997 52 460.389c0 12.957 10.527 23.484 23.483 23.484 5.264 0 10.122-1.755 14.036-4.656 5.196 5.803 12.687 9.379 21.054 9.379 11.337 0 21.054-6.68 25.576-16.262a23.895 23.895 0 0017.814 7.895c13.294 0 24.091-10.797 24.091-24.091 0-10.189-6.343-18.894-15.318-22.403-1.552-11.81-11.607-20.919-23.821-20.919a23.947 23.947 0 00-15.183 5.398C117.996 410.791 109.021 406 98.967 406z" fill="#fff"/></g><g filter="url(#filter1_d)"><path d="M209.141 567.666c-5.399 0-10.527-2.294-14.171-6.343l-.203-.202-.27.202a15.642 15.642 0 01-9.379 3.104c-8.638 0-15.723-7.085-15.723-15.723 0-6.815 4.318-12.753 10.796-14.913l.27-.067v-.27-.81c0-11.472 9.313-20.784 20.784-20.784 6.546 0 12.619 3.036 16.601 8.233l.202.269.27-.202c2.834-2.362 6.478-3.644 10.19-3.644 8.097 0 14.913 6.006 15.993 14.036v.202l.202.068c6.208 2.429 10.257 8.3 10.257 15.048 0 8.908-7.22 16.128-16.128 16.128-4.521 0-8.84-1.889-11.944-5.263l-.337-.405-.203.472c-3.104 6.546-9.852 10.864-17.207 10.864z" fill="url(#paint1_linear)"/><path d="M201.246 512.13c6.478 0 12.416 2.969 16.33 8.098l.405.539.54-.472c2.834-2.294 6.343-3.576 9.987-3.576 7.895 0 14.643 5.87 15.656 13.698l.067.405.405.135a15.734 15.734 0 0110.055 14.711c0 8.705-7.086 15.79-15.791 15.79a15.879 15.879 0 01-11.674-5.128l-.675-.743-.405.945c-3.036 6.546-9.717 10.73-16.87 10.73-5.263 0-10.324-2.295-13.901-6.209l-.405-.472-.472.337c-2.699 1.957-5.871 3.037-9.178 3.037-8.502 0-15.385-6.883-15.385-15.386 0-6.613 4.251-12.483 10.527-14.575l.472-.135v-.54-.81c-.135-11.202 9.043-20.379 20.312-20.379zm0-.675c-11.674 0-21.122 9.447-21.122 21.122v.809c-6.41 2.092-10.999 8.166-10.999 15.251 0 8.84 7.22 16.06 16.06 16.06 3.577 0 6.883-1.214 9.583-3.171 3.509 3.981 8.705 6.41 14.373 6.41 7.76 0 14.373-4.521 17.478-11.134 3.036 3.307 7.355 5.399 12.146 5.399 9.11 0 16.465-7.356 16.465-16.466 0-6.95-4.318-12.956-10.459-15.318-1.08-8.098-7.963-14.306-16.33-14.306-3.914 0-7.558 1.417-10.392 3.712-3.847-5.061-9.92-8.368-16.803-8.368z" fill="url(#paint2_linear)"/></g><g filter="url(#filter2_d)"><path d="M132.016 79.211c-5.399 0-10.527-2.294-14.171-6.343l-.203-.202-.27.202a15.646 15.646 0 01-9.379 3.104c-8.638 0-15.724-7.085-15.724-15.723 0-6.815 4.32-12.754 10.797-14.913l.27-.067v-.27-.81c0-11.472 9.313-20.784 20.784-20.784 6.546 0 12.619 3.036 16.601 8.232l.202.27.27-.202c2.834-2.362 6.478-3.644 10.19-3.644 8.097 0 14.913 6.006 15.993 14.036v.202l.202.068c6.208 2.43 10.257 8.3 10.257 15.048 0 8.908-7.22 16.128-16.128 16.128-4.521 0-8.84-1.89-11.944-5.264l-.337-.404-.203.472c-3.104 6.546-9.852 10.864-17.207 10.864z" fill="url(#paint3_linear)"/><path d="M124.121 23.675c6.478 0 12.416 2.969 16.33 8.098l.405.54.54-.473c2.834-2.294 6.343-3.576 9.987-3.576 7.895 0 14.643 5.87 15.656 13.698l.067.405.405.135a15.734 15.734 0 0110.055 14.71c0 8.706-7.086 15.791-15.791 15.791a15.88 15.88 0 01-11.674-5.128l-.675-.743-.405.945c-3.036 6.546-9.717 10.73-16.87 10.73-5.263 0-10.324-2.295-13.901-6.209l-.405-.472-.472.337c-2.699 1.957-5.871 3.037-9.178 3.037-8.502 0-15.385-6.883-15.385-15.386 0-6.613 4.251-12.483 10.527-14.575l.472-.135v-.54-.81c-.135-11.202 9.043-20.38 20.312-20.38zm0-.675c-11.674 0-21.122 9.447-21.122 21.121v.81C96.589 47.023 92 53.096 92 60.181c0 8.84 7.22 16.061 16.06 16.061 3.577 0 6.883-1.214 9.583-3.171 3.509 3.981 8.705 6.41 14.373 6.41 7.76 0 14.373-4.52 17.478-11.134 3.036 3.307 7.355 5.399 12.146 5.399 9.11 0 16.465-7.356 16.465-16.466 0-6.95-4.318-12.956-10.459-15.318-1.08-8.098-7.963-14.306-16.33-14.306-3.914 0-7.558 1.417-10.392 3.712-3.847-5.061-9.92-8.368-16.803-8.368z" fill="url(#paint4_linear)"/></g><g filter="url(#filter3_d)"><path d="M77.773 55.017c-4.45 0-8.68-1.892-11.684-5.23l-.167-.168-.223.167a12.904 12.904 0 01-7.734 2.56C50.842 52.346 45 46.503 45 39.38c0-5.62 3.561-10.517 8.903-12.297l.222-.056v-.222-.668C54.125 16.678 61.805 9 71.263 9c5.398 0 10.405 2.504 13.688 6.788l.167.223.223-.167c2.337-1.947 5.342-3.005 8.402-3.005 6.677 0 12.297 4.952 13.187 11.574v.167l.167.056c5.119 2.003 8.458 6.844 8.458 12.408 0 7.345-5.954 13.299-13.299 13.299a13.363 13.363 0 01-9.849-4.34l-.278-.334-.167.389c-2.56 5.397-8.123 8.959-14.189 8.959z" fill="url(#paint5_linear)"/><path d="M71.486 9.556c5.342 0 10.238 2.449 13.465 6.678l.334.445.445-.39c2.337-1.892 5.23-2.949 8.236-2.949 6.51 0 12.074 4.841 12.909 11.296l.055.333.334.112a12.973 12.973 0 018.291 12.13c0 7.178-5.843 13.02-13.021 13.02a13.094 13.094 0 01-9.626-4.229l-.556-.612-.334.78c-2.504 5.397-8.013 8.846-13.91 8.846-4.34 0-8.514-1.891-11.463-5.119l-.334-.39-.39.279c-2.225 1.614-4.84 2.504-7.567 2.504-7.01 0-12.686-5.676-12.686-12.687 0-5.453 3.505-10.293 8.68-12.018l.39-.112v-.445-.668c-.112-9.236 7.456-16.804 16.748-16.804zm0-.556C61.86 9 54.07 16.79 54.07 26.416v.668C48.784 28.809 45 33.817 45 39.659c0 7.29 5.954 13.243 13.243 13.243 2.949 0 5.675-1.002 7.901-2.615 2.894 3.283 7.178 5.286 11.852 5.286 6.399 0 11.852-3.728 14.412-9.181 2.503 2.726 6.065 4.451 10.015 4.451A13.56 13.56 0 00116 37.266c0-5.73-3.561-10.683-8.625-12.63-.89-6.677-6.565-11.797-13.465-11.797-3.227 0-6.232 1.169-8.57 3.06C82.17 11.728 77.162 9 71.487 9z" fill="url(#paint6_linear)"/></g><g filter="url(#filter4_d)"><ellipse cx="70" cy="1408.85" rx="46.788" ry="60.897" fill="url(#paint7_linear)"/></g><path d="M52.406 1388.48c5.372 0 9.731 5.67 9.731 12.67 0 2.07-1.323 3.8-2.919 3.8s-2.92-1.73-2.92-3.8c0-2.79-1.751-5.07-3.892-5.07-2.14 0-3.892 2.28-3.892 5.07 0 2.07-1.324 3.8-2.92 3.8-1.596 0-2.92-1.73-2.92-3.8 0-7 4.36-12.67 9.732-12.67zm-4.982 38.55c-1.13-1.52-1.13-3.9 0-5.42 1.129-1.47 2.997-1.47 4.126 0a26.8 26.8 0 002.374 2.74c4.554 4.71 10.12 7.19 15.998 7.19s11.445-2.48 15.999-7.19a26.8 26.8 0 002.374-2.74c1.129-1.47 2.997-1.47 4.126 0 1.129 1.52 1.129 3.9 0 5.42-5.994 7.81-14.013 12.11-22.499 12.11-8.485 0-16.504-4.3-22.498-12.11zm46.827-22.08c-1.596 0-2.92-1.73-2.92-3.8 0-2.79-1.751-5.07-3.892-5.07s-3.893 2.28-3.893 5.07c0 2.07-1.323 3.8-2.92 3.8-1.595 0-2.919-1.73-2.919-3.8 0-7 4.36-12.67 9.732-12.67 5.372 0 9.731 5.67 9.731 12.67 0 2.07-1.323 3.8-2.92 3.8z" fill="#CAEAF4"/><g filter="url(#filter5_d)"><path d="M47.426 917.944v-4.505c-6.152-.317-10.937-1.855-14.355-4.614-3.394-2.734-5.103-6.421-5.127-11.059H40.65c.098 1.587.77 2.942 2.014 4.065 1.27 1.123 2.857 1.782 4.761 1.977v-11.572l-4.358-.916c-9.448-2.099-14.172-7.165-14.172-15.197 0-4.712 1.623-8.484 4.87-11.316 3.223-2.832 7.776-4.456 13.66-4.871v-4.944h5.237v4.981c5.396.512 9.68 2.185 12.854 5.017 3.198 2.832 4.822 6.408 4.87 10.73H58.084c-.049-1.416-.586-2.674-1.611-3.772-1.026-1.123-2.295-1.807-3.809-2.051v11.169l4.358.806c9.644 1.831 14.465 6.848 14.465 15.051 0 4.785-1.635 8.594-4.907 11.426-3.247 2.857-7.886 4.529-13.916 5.017v4.578h-5.237zm11.5-19.519c0-2.759-2.088-4.517-6.263-5.274v10.657c1.953-.171 3.48-.732 4.578-1.684 1.123-.953 1.684-2.186 1.684-3.699zm-17.14-23.584c0 2.661 1.88 4.382 5.64 5.163V869.86c-1.66.098-3.015.611-4.065 1.538-1.05.928-1.574 2.076-1.574 3.443z" fill="url(#paint8_linear)"/></g><g filter="url(#filter6_d)"><path d="M105.082 865.91v-7.207c-9.844-.508-17.5-2.969-22.969-7.383-5.43-4.375-8.164-10.273-8.203-17.695h20.332c.156 2.539 1.23 4.707 3.223 6.504 2.031 1.797 4.57 2.851 7.617 3.164v-18.516l-6.973-1.465c-15.117-3.359-22.675-11.464-22.675-24.316 0-7.539 2.597-13.574 7.793-18.105 5.156-4.532 12.441-7.129 21.855-7.793v-7.91h8.379v7.968c8.633.821 15.488 3.496 20.566 8.028 5.118 4.531 7.715 10.254 7.793 17.168h-19.687c-.078-2.266-.938-4.278-2.578-6.036-1.641-1.796-3.672-2.89-6.094-3.281v17.871l6.973 1.289c15.429 2.93 23.144 10.957 23.144 24.082 0 7.657-2.617 13.75-7.851 18.282-5.196 4.57-12.618 7.246-22.266 8.027v7.324h-8.379zm18.398-31.23c0-4.414-3.339-7.227-10.019-8.438v17.051c3.125-.273 5.566-1.172 7.324-2.695 1.797-1.524 2.695-3.496 2.695-5.918zm-27.421-37.735c0 4.258 3.007 7.012 9.023 8.262v-16.23c-2.656.156-4.824.976-6.504 2.461-1.68 1.484-2.52 3.32-2.52 5.507z" fill="url(#paint9_linear)"/></g><defs><linearGradient id="paint0_linear" x1="76.112" y1="447.327" x2="201.498" y2="447.327" gradientUnits="userSpaceOnUse"><stop stop-color="#fff"/><stop offset="1" stop-color="#E1F4FD"/></linearGradient><linearGradient id="paint1_linear" x1="185.619" y1="539.759" x2="271.189" y2="539.759" gradientUnits="userSpaceOnUse"><stop stop-color="#fff"/><stop offset="1" stop-color="#E1F4FD"/></linearGradient><linearGradient id="paint2_linear" x1="185.452" y1="539.692" x2="271.562" y2="539.692" gradientUnits="userSpaceOnUse"><stop stop-color="#fff"/><stop offset="1" stop-color="#E1F4FD"/></linearGradient><linearGradient id="paint3_linear" x1="108.494" y1="51.304" x2="194.064" y2="51.304" gradientUnits="userSpaceOnUse"><stop stop-color="#fff"/><stop offset="1" stop-color="#E1F4FD"/></linearGradient><linearGradient id="paint4_linear" x1="108.327" y1="51.237" x2="194.437" y2="51.237" gradientUnits="userSpaceOnUse"><stop stop-color="#fff"/><stop offset="1" stop-color="#E1F4FD"/></linearGradient><linearGradient id="paint5_linear" x1="58.378" y1="32.005" x2="128.937" y2="32.005" gradientUnits="userSpaceOnUse"><stop stop-color="#fff"/><stop offset="1" stop-color="#E1F4FD"/></linearGradient><linearGradient id="paint6_linear" x1="58.463" y1="32.283" x2="129.466" y2="32.283" gradientUnits="userSpaceOnUse"><stop stop-color="#fff"/><stop offset="1" stop-color="#E1F4FD"/></linearGradient><linearGradient id="paint7_linear" x1="40.955" y1="1408.84" x2="134.537" y2="1408.84" gradientUnits="userSpaceOnUse"><stop stop-color="#fff"/><stop offset="1" stop-color="#E1F4FD"/></linearGradient><linearGradient id="paint8_linear" x1="33.239" y1="885.998" x2="87.242" y2="885.998" gradientUnits="userSpaceOnUse"><stop stop-color="#fff"/><stop offset="1" stop-color="#E1F4FD"/></linearGradient><linearGradient id="paint9_linear" x1="82.307" y1="814.998" x2="168.312" y2="814.998" gradientUnits="userSpaceOnUse"><stop stop-color="#fff"/><stop offset="1" stop-color="#E1F4FD"/></linearGradient><filter id="filter0_d" x="43.992" y="397.992" width="158.086" height="114.629" filterUnits="userSpaceOnUse" color-interpolation-filters="sRGB"><feFlood flood-opacity="0" result="BackgroundImageFix"/><feColorMatrix in="SourceAlpha" values="0 0 0 0 0 0 0 0 0 0 0 0 0 0 0 0 0 0 127 0"/><feOffset dx="8.008" dy="8.008"/><feGaussianBlur stdDeviation="8.008"/><feColorMatrix values="0 0 0 0 0.555208 0 0 0 0 0.752283 0 0 0 0 0.8125 0 0 0 0.5 0"/><feBlend in2="BackgroundImageFix" result="effect1_dropShadow"/><feBlend in="SourceGraphic" in2="effect1_dropShadow" result="shape"/></filter><filter id="filter1_d" x="161.117" y="503.447" width="118.138" height="88.513" filterUnits="userSpaceOnUse" color-interpolation-filters="sRGB"><feFlood flood-opacity="0" result="BackgroundImageFix"/><feColorMatrix in="SourceAlpha" values="0 0 0 0 0 0 0 0 0 0 0 0 0 0 0 0 0 0 127 0"/><feOffset dx="8.008" dy="8.008"/><feGaussianBlur stdDeviation="8.008"/><feColorMatrix values="0 0 0 0 0.555208 0 0 0 0 0.752283 0 0 0 0 0.8125 0 0 0 0.5 0"/><feBlend in2="BackgroundImageFix" result="effect1_dropShadow"/><feBlend in="SourceGraphic" in2="effect1_dropShadow" result="shape"/></filter><filter id="filter2_d" x="83.992" y="14.992" width="118.138" height="88.513" filterUnits="userSpaceOnUse" color-interpolation-filters="sRGB"><feFlood flood-opacity="0" result="BackgroundImageFix"/><feColorMatrix in="SourceAlpha" values="0 0 0 0 0 0 0 0 0 0 0 0 0 0 0 0 0 0 127 0"/><feOffset dx="8.008" dy="8.008"/><feGaussianBlur stdDeviation="8.008"/><feColorMatrix values="0 0 0 0 0.555208 0 0 0 0 0.752283 0 0 0 0 0.8125 0 0 0 0.5 0"/><feBlend in2="BackgroundImageFix" result="effect1_dropShadow"/><feBlend in="SourceGraphic" in2="effect1_dropShadow" result="shape"/></filter><filter id="filter3_d" x="36.992" y=".992" width="103.032" height="78.605" filterUnits="userSpaceOnUse" color-interpolation-filters="sRGB"><feFlood flood-opacity="0" result="BackgroundImageFix"/><feColorMatrix in="SourceAlpha" values="0 0 0 0 0 0 0 0 0 0 0 0 0 0 0 0 0 0 127 0"/><feOffset dx="8.008" dy="8.008"/><feGaussianBlur stdDeviation="8.008"/><feColorMatrix values="0 0 0 0 0.555208 0 0 0 0 0.752283 0 0 0 0 0.8125 0 0 0 0.5 0"/><feBlend in2="BackgroundImageFix" result="effect1_dropShadow"/><feBlend in="SourceGraphic" in2="effect1_dropShadow" result="shape"/></filter><filter id="filter4_d" x="15.204" y="1339.94" width="125.608" height="153.826" filterUnits="userSpaceOnUse" color-interpolation-filters="sRGB"><feFlood flood-opacity="0" result="BackgroundImageFix"/><feColorMatrix in="SourceAlpha" values="0 0 0 0 0 0 0 0 0 0 0 0 0 0 0 0 0 0 127 0"/><feOffset dx="8.008" dy="8.008"/><feGaussianBlur stdDeviation="8.008"/><feColorMatrix values="0 0 0 0 0.466667 0 0 0 0 0.756863 0 0 0 0 0.498039 0 0 0 0.5 0"/><feBlend in2="BackgroundImageFix" result="effect1_dropShadow"/><feBlend in="SourceGraphic" in2="effect1_dropShadow" result="shape"/></filter><filter id="filter5_d" x="17.943" y="844.992" width="83.543" height="102.952" filterUnits="userSpaceOnUse" color-interpolation-filters="sRGB"><feFlood flood-opacity="0" result="BackgroundImageFix"/><feColorMatrix in="SourceAlpha" values="0 0 0 0 0 0 0 0 0 0 0 0 0 0 0 0 0 0 127 0"/><feOffset dx="10" dy="10"/><feGaussianBlur stdDeviation="10"/><feColorMatrix values="0 0 0 0 0.555208 0 0 0 0 0.752283 0 0 0 0 0.8125 0 0 0 0.5 0"/><feBlend in2="BackgroundImageFix" result="effect1_dropShadow"/><feBlend in="SourceGraphic" in2="effect1_dropShadow" result="shape"/></filter><filter id="filter6_d" x="63.91" y="755.188" width="109.668" height="140.723" filterUnits="userSpaceOnUse" color-interpolation-filters="sRGB"><feFlood flood-opacity="0" result="BackgroundImageFix"/><feColorMatrix in="SourceAlpha" values="0 0 0 0 0 0 0 0 0 0 0 0 0 0 0 0 0 0 127 0"/><feOffset dx="10" dy="10"/><feGaussianBlur stdDeviation="10"/><feColorMatrix values="0 0 0 0 0.555208 0 0 0 0 0.752283 0 0 0 0 0.8125 0 0 0 0.5 0"/><feBlend in2="BackgroundImageFix" result="effect1_dropShadow"/><feBlend in="SourceGraphic" in2="effect1_dropShadow" result="shape"/></filter></defs></svg>