<svg width="45" height="25" fill="none" xmlns="http://www.w3.org/2000/svg"><circle cx="32.5" cy="12.5" r="12.5" fill="#4CD964"/><circle cx="12.5" cy="12.5" fill="#007AFF" r="12.5"/><path d="M18.018 7.482c-.536-.536-1.875 0-2.678.804L14 9.625l-5.566-1.33c-.084-.026-.184.007-.251.066L7.11 9.432a.288.288 0 00-.075.226.294.294 0 00.142.201l4.253 2.336-2.168 2.168-1.624-.444c-.017-.008-.042-.008-.067-.008a.28.28 0 00-.193.075l-.803.812a.282.282 0 00-.076.21c.009.075.042.15.11.192l2.109 1.582 1.582 2.11c.05.066.117.1.2.108h.017a.28.28 0 00.193-.075l.803-.804c.067-.075.092-.167.067-.26l-.443-1.623 2.168-2.168 2.335 4.252a.24.24 0 00.176.134.257.257 0 00.218-.042l1.07-.803a.275.275 0 00.101-.277l-1.34-5.826 1.349-1.347c.803-.804 1.339-2.143.803-2.679zM31.865 19a.4.4 0 01-.27-.105.365.365 0 01-.105-.27v-1.05c-.75-.09-1.39-.275-1.92-.555-.52-.29-.915-.645-1.185-1.065-.26-.42-.4-.865-.42-1.335 0-.09.03-.165.09-.225.07-.06.15-.09.24-.09h1.995c.13 0 .23.02.3.06.07.04.15.11.24.21.31.55.88.825 1.71.825.54 0 .955-.08 1.245-.24.3-.17.45-.4.45-.69 0-.21-.08-.38-.24-.51-.15-.14-.39-.26-.72-.36-.32-.11-.795-.23-1.425-.36-1.21-.24-2.115-.605-2.715-1.095-.6-.49-.9-1.19-.9-2.1 0-.81.29-1.495.87-2.055.58-.57 1.375-.925 2.385-1.065v-1.05c0-.11.035-.2.105-.27a.4.4 0 01.27-.105h1.305c.11 0 .2.035.27.105.07.07.105.16.105.27v1.08c.66.12 1.23.335 1.71.645.48.3.845.65 1.095 1.05.26.39.4.77.42 1.14 0 .09-.03.17-.09.24a.305.305 0 01-.225.09h-2.1c-.23 0-.4-.09-.51-.27-.06-.21-.22-.385-.48-.525-.25-.15-.555-.225-.915-.225-.42 0-.745.075-.975.225-.23.15-.345.37-.345.66 0 .29.15.52.45.69.3.16.855.325 1.665.495.94.17 1.69.385 2.25.645.56.25.97.58 1.23.99.26.4.39.91.39 1.53 0 .88-.325 1.605-.975 2.175-.64.57-1.505.925-2.595 1.065v1.05c0 .11-.035.2-.105.27a.365.365 0 01-.27.105h-1.305z" fill="#fff"/></svg>