<svg width="30" height="30" fill="none" xmlns="http://www.w3.org/2000/svg"><path clip-rule="evenodd" d="M15 29c7.732 0 14-6.268 14-14S22.732 1 15 1 1 7.268 1 15s6.268 14 14 14z" stroke="#fff"/><path fill-rule="evenodd" clip-rule="evenodd" d="M20.353 11.315L15.13 16.67a.19.19 0 01-.261.002c-2.365-2.431-4.221-4.38-5.106-5.356h10.589zm-11.248 6.94v-6.513c.525.606 1.465 1.603 3.119 3.315l-3.119 3.198zm8.677-3.192l3.113 3.192v-6.384l-3.113 3.192zm-2.781 2.448a.934.934 0 00.672-.286l1.567-1.606 3.349 3.434H9.412l3.351-3.438 1.564 1.61c.18.184.419.286.674.286z" fill="#fff"/></svg>