<svg width="32" height="32" fill="none" xmlns="http://www.w3.org/2000/svg"><path d="M16 0C7.164 0 0 7.164 0 16s7.164 16 16 16 16-7.164 16-16S24.836 0 16 0z" fill="#007AFF"/><path d="M22.38 21.181c-.182.4-.592.747-1.23 1.042-.638.295-1.204.443-1.7.443-.138 0-.286-.01-.442-.032a7.098 7.098 0 01-.397-.066 7.005 7.005 0 01-.814-.247 48.676 48.676 0 00-.82-.306c-1.423-.52-2.815-1.46-4.173-2.819-1.359-1.359-2.298-2.75-2.82-4.173a42.79 42.79 0 00-.306-.82 7.425 7.425 0 01-.246-.814 6.855 6.855 0 01-.066-.397 3.227 3.227 0 01-.032-.443c0-.494.148-1.06.443-1.699.295-.638.642-1.048 1.042-1.23a3.43 3.43 0 011.315-.287c.095 0 .165.009.208.026.043.018.115.096.215.235.1.139.208.314.325.527.117.213.233.419.345.619a27.39 27.39 0 01.521.963c.026.044.083.126.17.248.086.121.152.23.195.325a.663.663 0 01.065.274c0 .13-.09.288-.267.475a4.447 4.447 0 01-.586.514 5.075 5.075 0 00-.586.502c-.178.177-.267.323-.267.436 0 .06.015.132.046.214a2.003 2.003 0 00.208.424c.056.095.093.156.11.182.478.86 1.027 1.6 1.648 2.22.62.621 1.36 1.17 2.22 1.648.026.017.087.054.183.11a1.978 1.978 0 00.423.208.64.64 0 00.215.046c.138 0 .33-.143.573-.43.243-.286.49-.57.742-.853.252-.282.455-.423.612-.423.087 0 .178.022.273.065a2 2 0 01.326.196c.122.087.204.143.247.17l.69.377c.46.243.844.457 1.152.644.309.187.476.315.502.384a.609.609 0 01.026.209c0 .416-.096.854-.287 1.313z" fill="#fff"/></svg>