<svg width="161" height="185" fill="none" xmlns="http://www.w3.org/2000/svg"><g filter="url(#filter0_d)"><path d="M135.841 47.866c-.181-3.972-.181-7.764-.181-11.556 0-3.07-2.346-5.417-5.413-5.417-22.556 0-39.7-6.5-53.955-20.404a5.565 5.565 0 00-7.579 0C54.458 24.392 37.316 30.893 14.76 30.893c-3.068 0-5.413 2.347-5.413 5.417 0 3.792 0 7.584-.18 11.556-.723 37.92-1.805 89.923 61.532 111.772l1.805.361 1.804-.361c63.158-21.849 62.256-73.672 61.534-111.772z" fill="url(#paint0_linear)"/></g><path d="M68.172 100.412c-1.083.903-2.346 1.444-3.79 1.444h-.18c-1.444 0-2.887-.722-3.79-1.805L43.632 81.452l8.12-7.223 13.173 14.626 29.233-27.807 7.398 7.945-33.383 31.419z" fill="#4CD964"/><defs><linearGradient id="paint0_linear" x1="33.081" y1="84.489" x2="160.088" y2="84.489" gradientUnits="userSpaceOnUse"><stop stop-color="#fff"/><stop offset="1" stop-color="#E1F4FD"/></linearGradient><filter id="filter0_d" x=".992" y=".991" width="159.032" height="183.032" filterUnits="userSpaceOnUse" color-interpolation-filters="sRGB"><feFlood flood-opacity="0" result="BackgroundImageFix"/><feColorMatrix in="SourceAlpha" values="0 0 0 0 0 0 0 0 0 0 0 0 0 0 0 0 0 0 127 0"/><feOffset dx="8.008" dy="8.008"/><feGaussianBlur stdDeviation="8.008"/><feColorMatrix values="0 0 0 0 0.467639 0 0 0 0 0.758333 0 0 0 0 0.496708 0 0 0 0.5 0"/><feBlend in2="BackgroundImageFix" result="effect1_dropShadow"/><feBlend in="SourceGraphic" in2="effect1_dropShadow" result="shape"/></filter></defs></svg>