<svg width="141" height="183" fill="none" xmlns="http://www.w3.org/2000/svg"><g filter="url(#filter0_d)"><ellipse cx="70" cy="91.847" rx="46.788" ry="60.897" fill="url(#paint0_linear)"/></g><path d="M52.406 71.48c5.372 0 9.731 5.674 9.731 12.666 0 2.077-1.323 3.8-2.919 3.8s-2.92-1.723-2.92-3.8c0-2.787-1.751-5.067-3.892-5.067-2.14 0-3.892 2.28-3.892 5.067 0 2.077-1.324 3.8-2.92 3.8-1.596 0-2.92-1.723-2.92-3.8 0-6.992 4.36-12.666 9.732-12.666zm-4.982 38.555c-1.13-1.52-1.13-3.901 0-5.421 1.129-1.47 2.997-1.47 4.126 0 .74.962 1.557 1.925 2.374 2.736 4.554 4.711 10.12 7.194 15.998 7.194s11.445-2.483 15.999-7.194c.817-.811 1.635-1.774 2.374-2.736 1.129-1.47 2.997-1.47 4.126 0 1.129 1.52 1.129 3.901 0 5.421-5.994 7.802-14.013 12.108-22.499 12.108-8.485 0-16.504-4.306-22.498-12.108zm46.827-22.09c-1.596 0-2.92-1.722-2.92-3.8 0-2.786-1.751-5.066-3.892-5.066s-3.893 2.28-3.893 5.067c0 2.077-1.323 3.8-2.92 3.8-1.595 0-2.919-1.723-2.919-3.8 0-6.992 4.36-12.666 9.732-12.666 5.372 0 9.731 5.674 9.731 12.666 0 2.077-1.323 3.8-2.92 3.8z" fill="#CAEAF4"/><defs><linearGradient id="paint0_linear" x1="40.955" y1="91.838" x2="134.537" y2="91.838" gradientUnits="userSpaceOnUse"><stop stop-color="#fff"/><stop offset="1" stop-color="#E1F4FD"/></linearGradient><filter id="filter0_d" x="15.204" y="22.941" width="125.608" height="153.826" filterUnits="userSpaceOnUse" color-interpolation-filters="sRGB"><feFlood flood-opacity="0" result="BackgroundImageFix"/><feColorMatrix in="SourceAlpha" values="0 0 0 0 0 0 0 0 0 0 0 0 0 0 0 0 0 0 127 0"/><feOffset dx="8.008" dy="8.008"/><feGaussianBlur stdDeviation="8.008"/><feColorMatrix values="0 0 0 0 0.466667 0 0 0 0 0.756863 0 0 0 0 0.498039 0 0 0 0.5 0"/><feBlend in2="BackgroundImageFix" result="effect1_dropShadow"/><feBlend in="SourceGraphic" in2="effect1_dropShadow" result="shape"/></filter></defs></svg>