<svg width="99" height="18" fill="none" xmlns="http://www.w3.org/2000/svg"><path d="M5.038 17V4.174H.505V1.499h12.321v2.675H8.282V17H5.038zm12.644.204c-1.798 0-3.22-.544-4.265-1.633-1.046-1.088-1.568-2.585-1.568-4.49 0-1.883.526-3.377 1.579-4.48 1.052-1.088 2.47-1.632 4.254-1.632 1.79 0 3.208.544 4.254 1.633 1.052 1.095 1.579 2.588 1.579 4.48 0 1.911-.523 3.411-1.569 4.5-1.038 1.081-2.46 1.622-4.264 1.622zm0-2.417c.83 0 1.479-.322 1.944-.967.465-.651.698-1.565.698-2.739 0-1.16-.236-2.07-.709-2.728-.465-.652-1.11-.978-1.933-.978-.831 0-1.48.326-1.945.978-.472.658-.709 1.568-.709 2.728 0 1.175.237 2.088.71 2.74.465.644 1.113.966 1.944.966zm12.912 2.417c-1.798 0-3.22-.544-4.265-1.633-1.046-1.088-1.568-2.585-1.568-4.49 0-1.883.526-3.377 1.579-4.48 1.053-1.088 2.47-1.632 4.254-1.632 1.79 0 3.208.544 4.254 1.633 1.052 1.095 1.579 2.588 1.579 4.48 0 1.911-.523 3.411-1.569 4.5-1.038 1.081-2.46 1.622-4.264 1.622zm0-2.417c.83 0 1.479-.322 1.944-.967.466-.651.698-1.565.698-2.739 0-1.16-.236-2.07-.709-2.728-.465-.652-1.11-.978-1.933-.978-.831 0-1.48.326-1.945.978-.472.658-.709 1.568-.709 2.728 0 1.175.237 2.088.71 2.74.465.644 1.113.966 1.944.966zm14.878-9.614h3.566l-4.555 5.08L49.253 17h-3.61l-3.458-4.855-.85.913V17H38.2V.758h3.137v9.195h.043l4.093-4.78zM53.808 17V4.174h-4.534V1.499h12.322v2.675h-4.544V17h-3.244zm12.643.204c-1.797 0-3.219-.544-4.264-1.633-1.046-1.088-1.569-2.585-1.569-4.49 0-1.883.526-3.377 1.58-4.48 1.052-1.088 2.47-1.632 4.253-1.632 1.79 0 3.209.544 4.254 1.633 1.053 1.095 1.58 2.588 1.58 4.48 0 1.911-.524 3.411-1.57 4.5-1.038 1.081-2.46 1.622-4.264 1.622zm0-2.417c.83 0 1.479-.322 1.945-.967.465-.651.698-1.565.698-2.739 0-1.16-.237-2.07-.71-2.728-.465-.652-1.11-.978-1.933-.978-.83 0-1.479.326-1.944.978-.473.658-.71 1.568-.71 2.728 0 1.175.237 2.088.71 2.74.465.644 1.113.966 1.944.966zm12.912 2.417c-1.797 0-3.219-.544-4.264-1.633-1.046-1.088-1.569-2.585-1.569-4.49 0-1.883.527-3.377 1.58-4.48 1.052-1.088 2.47-1.632 4.253-1.632 1.79 0 3.209.544 4.254 1.633 1.053 1.095 1.58 2.588 1.58 4.48 0 1.911-.523 3.411-1.57 4.5-1.037 1.081-2.459 1.622-4.264 1.622zm0-2.417c.831 0 1.48-.322 1.945-.967.465-.651.698-1.565.698-2.739 0-1.16-.237-2.07-.71-2.728-.465-.652-1.11-.978-1.933-.978-.83 0-1.479.326-1.944.978-.473.658-.709 1.568-.709 2.728 0 1.175.236 2.088.709 2.74.465.644 1.114.966 1.944.966zm14.878-9.614h3.567l-4.555 5.08L98.023 17h-3.61l-3.459-4.855-.848.913V17h-3.137V.758h3.137v9.195h.042l4.093-4.78z" fill="#fff"/></svg>