<svg width="30" height="30" fill="none" xmlns="http://www.w3.org/2000/svg"><g clip-path="url(#clip0)"><path d="M28.944 17.366c.895-7.534-.43-12.29-2.82-14.441v-.001C22.268-.75 9.24-1.294 4.625 3.089c-2.072 2.143-2.802 5.29-2.882 9.185-.08 3.896-.175 11.195 6.627 13.175h.006l-.006 3.023s-.047 1.225.736 1.472c.895.29 1.3-.28 4.084-3.604 4.655.404 8.23-.521 8.636-.656.94-.315 6.259-1.02 7.119-8.318zm-15.297 6.846s-2.946 3.674-3.862 4.628c-.3.31-.629.281-.624-.334 0-.404.023-5.02.023-5.02-5.767-1.652-5.427-7.867-5.364-11.119.062-3.252.657-5.916 2.412-7.71 4.05-3.796 15.47-2.947 18.38-.212 3.558 3.154 2.292 12.064 2.3 12.367-.732 6.093-5.042 6.48-5.835 6.743-.338.112-3.482.921-7.43.657z" fill="#7D3DAF"/><path d="M28.944 17.366c.895-7.534-.43-12.29-2.82-14.441v-.001C22.268-.75 9.24-1.294 4.625 3.089c-2.072 2.143-2.802 5.29-2.882 9.185-.08 3.896-.175 11.195 6.627 13.175h.006l-.006 3.023s-.047 1.225.736 1.472c.895.29 1.3-.28 4.084-3.604 4.655.404 8.23-.521 8.636-.656.94-.315 6.259-1.02 7.119-8.318z" fill="#7D3DAF"/><path d="M15.278 5.371c-.481 0-.481.75 0 .756 3.734.03 6.809 2.632 6.842 7.405 0 .504.738.498.732-.006h-.002c-.04-5.144-3.397-8.126-7.572-8.155z" fill="#fff"/><path d="M20.188 12.741c-.011.498.725.521.732.018.06-2.836-1.688-5.173-4.974-5.419-.482-.035-.532.721-.052.756 2.85.217 4.352 2.162 4.294 4.645zM19.4 15.968c-.617-.358-1.245-.135-1.505.216l-.544.704c-.276.357-.793.31-.793.31-3.767-.997-4.775-4.94-4.775-4.94s-.046-.533.299-.82l.68-.562c.34-.27.555-.92.209-1.558-.925-1.672-1.546-2.248-1.863-2.69-.332-.417-.832-.51-1.352-.23h-.011c-1.082.633-2.265 1.817-1.887 3.036.647 1.285 1.834 5.381 5.619 8.476 1.779 1.464 4.594 2.964 5.789 3.31l.011.018c1.177.392 2.322-.838 2.934-1.952v-.008c.271-.54.181-1.05-.215-1.383-.703-.685-1.763-1.441-2.595-1.927z" fill="#fff"/><path d="M16.46 10.13c1.202.07 1.784.698 1.847 1.986.023.504.754.47.731-.035-.08-1.682-.957-2.62-2.537-2.707-.482-.029-.527.727-.04.756z" fill="#fff"/></g><defs><clipPath id="clip0"><path fill="#fff" d="M0 0h30v30H0z"/></clipPath></defs></svg>