<svg width="27" height="27" fill="none" xmlns="http://www.w3.org/2000/svg"><g clip-path="url(#clip0)"><path d="M23.085 3.88C20.52 1.4 17.145 0 13.551 0 3.234 0-3.243 11.177 1.908 20.068L0 27l7.127-1.858c3.105 1.677 5.648 1.528 6.43 1.627 11.963 0 17.917-14.472 9.511-22.845l.017-.044z" fill="#4CAF50"/><path d="M13.576 24.47l-.007-.001h-.018c-3.58 0-5.867-1.696-6.092-1.793L3.24 23.773l1.13-4.101-.268-.422a11.102 11.102 0 01-1.706-5.918c0-9.892 12.089-14.838 19.084-7.846 6.978 6.918 2.079 18.984-7.904 18.984z" fill="#4CAF50"/><path d="M19.695 16.095l-.01.085c-.338-.169-1.987-.976-2.295-1.087-.69-.255-.495-.04-1.819 1.476-.197.22-.392.236-.726.084-.338-.168-1.421-.523-2.704-1.67-.999-.895-1.67-1.991-1.867-2.329-.33-.57.36-.65.987-1.838.113-.236.056-.422-.028-.59-.084-.168-.756-1.822-1.037-2.481-.27-.657-.548-.574-.756-.574-.648-.056-1.122-.047-1.539.387-1.816 1.996-1.358 4.054.196 6.244 3.053 3.996 4.68 4.731 7.654 5.753.804.255 1.536.22 2.115.136.646-.102 1.988-.811 2.268-1.604.287-.793.287-1.452.203-1.603-.084-.152-.304-.237-.642-.389z" fill="#FAFAFA"/></g><defs><clipPath id="clip0"><path fill="#fff" d="M0 0h27v27H0z"/></clipPath></defs></svg>